<?xml version="1.0" encoding="UTF-8" standalone="no"?>
<!-- Created with Inkscape (http://www.inkscape.org/) -->
<svg xmlns:rdf="http://www.w3.org/1999/02/22-rdf-syntax-ns#" xmlns="http://www.w3.org/2000/svg" xmlns:cc="http://creativecommons.org/ns#" xmlns:dc="http://purl.org/dc/elements/1.1/" xmlns:svg="http://www.w3.org/2000/svg" xmlns:inkscape="http://www.inkscape.org/namespaces/inkscape" xmlns:sodipodi="http://sodipodi.sourceforge.net/DTD/sodipodi-0.dtd" xmlns:ns1="http://sozi.baierouge.fr" xmlns:xlink="http://www.w3.org/1999/xlink" id="svg3135" viewBox="0 0 131.64 177.1" version="1.1" inkscape:version="0.91 r13725">
  <defs id="defs3137">
    <clipPath id="clipPath84">
      <path id="path86" d="m0 612h792v-612h-792v612z"/>
    </clipPath>
  </defs>
  <g id="layer1" transform="translate(-578.9 -444.79)">
    <g id="g80" transform="matrix(1.25 0 0 -1.25 -40.763 1029.5)">
      <g id="g82" clip-path="url(#clipPath84)">
        <g id="g88" transform="translate(561,330.75)">
          <path id="path90" style="fill:#ffffff" d="m0 0-18.75 37.25-2.75 17.5 0.25 18.5 0.75 8.75-0.5 8 2.75 1 6.25-6 0.75 30.75 2.25 13.25 4 1.5 3-1.5 1.5-4.75l0.75-25.25s8 4 11.5-6.5c0 0 8.25 3 11.5-10 0 0 6.5 1 10.5-8.75l3.25-10.75-2.25-31-3-9 0.5-8.25-0.75-5.75s-16.25-15.25-31.5-9"/>
        </g>
        <g id="g92" transform="translate(595.67 376.31)">
          <path id="path94" style="fill:#878786" d="m0 0c-0.075-0.942-0.136-1.7-0.169-2.209-0.202-3.127-0.815-12.642-2.755-17.127-2.168-5.015-0.771-11.404-0.711-11.674l0.049-0.173c0.391-1.098 0.252-2.366-0.398-3.667-1.01-2.022-4.207-5.883-14.26-9.025-12.061-3.768-15.611-0.182-15.854 0.083-1.07 1.789-21.037 35.412-20.408 51.131 0.086 6.061 0.356 22.197 0.574 24.055 0.181 1.538-0.068 3.638-0.332 5.861-0.252 2.124-0.72 6.077-0.166 6.716 0.001 0 0.102 0.017 0.346-0.053l0.287-0.052c0.158-0.016 3.774-0.474 5.52-6.674-0.05-3.081-0.096-6.336-0.139-9.779-0.035-2.882-0.063-5.009-0.088-6.013-0.154-5.854-2.135-9.625-2.155-9.662l1.321-0.711 1.318-0.714c0.096 0.176 2.34 4.391 2.514 11.008 0.027 1.011 0.054 3.153 0.09 6.055 0.043 3.505 0.092 6.832 0.145 10.001l0.054 0.014c-0.015 0.063-0.035 0.117-0.052 0.179 0.454 27.12 1.24 41.845 2.336 43.779 0.918 1.345 2.408 2.042 3.71 1.734 1.13-0.269 1.864-1.247 2.065-2.754 0.205-1.544 0.463-6.904 0.762-13.109 0.876-18.208 1.718-33.578 3.162-37.243l2.791 1.1c-0.912 2.317-1.653 12.083-2.221 21.978 1.554 0.315 2.914 0.104 4.141-0.639 2.75-1.665 4.453-5.878 5.13-9.266 0.688-3.439 1.469-12.615 1.477-12.708l2.988 0.253c-0.031 0.384-0.802 9.438-1.523 13.043-0.088 0.44-0.244 1.125-0.477 1.94 5.81 0.123 7.262-5.721 7.415-6.428 0.64-2.943 4.878-14.461 5.058-14.95l2.816 1.037c-0.912 2.474-2.361 6.496-3.466 9.767 3.453-0.5 5.308-4.056 7.279-8.567 0.546-1.248 1.06-2.426 1.615-3.359 1.822-3.069 0.609-18.204 0.211-23.178m2.367 24.709c-0.458 0.773-0.937 1.869-1.443 3.029-1.864 4.266-4.616 10.563-11.029 10.436-0.223 0.725-0.391 1.32-0.476 1.714-0.794 3.653-4.09 9.471-11.385 8.716-1.013 2.362-2.593 4.918-5.003 6.378-1.762 1.068-3.731 1.421-5.863 1.08-0.218 4.039-0.408 7.975-0.568 11.302-0.314 6.532-0.563 11.692-0.786 13.361-0.365 2.746-1.99 4.718-4.344 5.276-2.5 0.595-5.269-0.597-6.881-2.962-1.428-2.094-2.251-13.479-2.753-39.42-2.146 2.597-4.53 3.122-5.22 3.217-1.442 0.373-2.378-0.084-2.914-0.541-1.87-1.592-1.44-5.207-0.944-9.393 0.23-1.952 0.471-3.971 0.33-5.158-0.281-2.39-0.58-23.467-0.592-24.324-0.678-16.921 20.001-51.377 20.881-52.835l0.057-0.087c0.298-0.425 2.429-3.099 8.695-3.099 2.685 0 6.133 0.492 10.521 1.863 10.557 3.299 14.555 7.556 16.049 10.547 0.991 1.982 1.196 4.076 0.578 5.91-0.138 0.68-1.113 5.901 0.553 9.755 1.924 4.448 2.631 12.473 2.995 18.123 0.032 0.499 0.091 1.241 0.165 2.164 0.877 10.937 1.407 21.531-0.623 24.948"/>
        </g>
        <g id="g96" transform="translate(548.14 455.33)">
          <path id="path98" style="fill:#878786" d="m0 0-10.85 10.849v-4.091h-11.963v-13.334h11.963v-4.273l10.85 10.849z"/>
        </g>
        <g id="g100" transform="translate(520.14 455.33)">
          <path id="path102" style="fill:#878786" d="m0 0-10.85 10.849v-4.091h-11.963v-13.334h11.963v-4.273l10.85 10.849z"/>
        </g>
      </g>
    </g>
  </g>
  <metadata>
    <rdf:RDF>
      <cc:Work>
        <dc:format>image/svg+xml</dc:format>
        <dc:type rdf:resource="http://purl.org/dc/dcmitype/StillImage"/>
        <cc:license rdf:resource="http://creativecommons.org/licenses/publicdomain/"/>
        <dc:publisher>
          <cc:Agent rdf:about="http://openclipart.org/">
            <dc:title>Openclipart</dc:title>
          </cc:Agent>
        </dc:publisher>
        <dc:title>Multitouch - swipe</dc:title>
        <dc:date>2013-02-25T20:30:44</dc:date>
        <dc:description>A small set of multitoutch wireframes by Jonathan Averstedt. Used with permission, original file available here: http://dribbble.com/shots/817543-Freebie-Hands</dc:description>
        <dc:source>https://openclipart.org/detail/175322/multitouch---swipe-by-williamtheaker-175322</dc:source>
        <dc:creator>
          <cc:Agent>
            <dc:title>williamtheaker</dc:title>
          </cc:Agent>
        </dc:creator>
        <dc:subject>
          <rdf:Bag>
            <rdf:li>android</rdf:li>
            <rdf:li>gesture</rdf:li>
            <rdf:li>iphone</rdf:li>
            <rdf:li>meego</rdf:li>
            <rdf:li>multitouch</rdf:li>
            <rdf:li>replicant</rdf:li>
            <rdf:li>smartphone</rdf:li>
            <rdf:li>swipe</rdf:li>
            <rdf:li>tablet</rdf:li>
          </rdf:Bag>
        </dc:subject>
      </cc:Work>
      <cc:License rdf:about="http://creativecommons.org/licenses/publicdomain/">
        <cc:permits rdf:resource="http://creativecommons.org/ns#Reproduction"/>
        <cc:permits rdf:resource="http://creativecommons.org/ns#Distribution"/>
        <cc:permits rdf:resource="http://creativecommons.org/ns#DerivativeWorks"/>
      </cc:License>
    </rdf:RDF>
  </metadata>
</svg>
